<svg xmlns="http://www.w3.org/2000/svg" xmlns:xlink="http://www.w3.org/1999/xlink" width="2000" zoomAndPan="magnify" viewBox="0 0 1500 1499.999933" height="2000" preserveAspectRatio="xMidYMid meet" version="1.0"><defs><filter x="0%" y="0%" width="100%" height="100%" id="8ef8ddf344"><feColorMatrix values="0 0 0 0 1 0 0 0 0 1 0 0 0 0 1 0 0 0 1 0" color-interpolation-filters="sRGB"/></filter><mask id="1e8925615a"><g filter="url(#8ef8ddf344)"><rect x="-150" width="1800" fill="#000000" y="-149.999993" height="1799.99992" fill-opacity="0.3"/></g></mask><clipPath id="22c963ad3a"><path d="M 0 0 L 1500 0 L 1500 1500 L 0 1500 Z M 0 0 " clip-rule="nonzero"/></clipPath><clipPath id="b2f86f2075"><path d="M 75 0 L 1425 0 C 1466.421875 0 1500 33.578125 1500 75 L 1500 1425 C 1500 1466.421875 1466.421875 1500 1425 1500 L 75 1500 C 33.578125 1500 0 1466.421875 0 1425 L 0 75 C 0 33.578125 33.578125 0 75 0 Z M 75 0 " clip-rule="nonzero"/></clipPath><clipPath id="1a06ba44f2"><path d="M 0 0 L 1500 0 L 1500 1500 L 0 1500 Z M 0 0 " clip-rule="nonzero"/></clipPath><clipPath id="94da9a9c56"><path d="M 75 0 L 1425 0 C 1466.421875 0 1500 33.578125 1500 75 L 1500 1425 C 1500 1466.421875 1466.421875 1500 1425 1500 L 75 1500 C 33.578125 1500 0 1466.421875 0 1425 L 0 75 C 0 33.578125 33.578125 0 75 0 Z M 75 0 " clip-rule="nonzero"/></clipPath><clipPath id="df45a47ae6"><rect x="0" width="1500" y="0" height="1500"/></clipPath><clipPath id="e9a5ffdc50"><rect x="0" width="1500" y="0" height="1500"/></clipPath><clipPath id="a0312ea7ff"><path d="M 368.433594 372.207031 L 1004 372.207031 L 1004 801 L 368.433594 801 Z M 368.433594 372.207031 " clip-rule="nonzero"/></clipPath><clipPath id="da1143ec32"><path d="M 418 469 L 1131.933594 469 L 1131.933594 1127.457031 L 418 1127.457031 Z M 418 469 " clip-rule="nonzero"/></clipPath></defs><g mask="url(#1e8925615a)"><g transform="matrix(1, 0, 0, 1, 0, 0.000000000000112861)"><g clip-path="url(#e9a5ffdc50)"><g clip-path="url(#22c963ad3a)"><g clip-path="url(#b2f86f2075)"><g transform="matrix(1, 0, 0, 1, 0, 0.000000000000112861)"><g clip-path="url(#df45a47ae6)"><g clip-path="url(#1a06ba44f2)"><g clip-path="url(#94da9a9c56)"><rect x="-546" width="2592" fill="#9e9e9f" y="-545.999976" height="2591.999885" fill-opacity="1"/></g></g></g></g></g></g></g></g></g><g clip-path="url(#a0312ea7ff)"><path fill="#f5f5f5" d="M 496.207031 611.242188 C 494.160156 592.945312 493.101562 574.351562 493.101562 555.507812 L 493.128906 549.765625 C 521.289062 537.609375 550.488281 527.386719 580.550781 519.277344 C 608.453125 511.742188 637.113281 506.027344 666.386719 502.265625 C 691.160156 499.078125 716.367188 497.292969 741.933594 496.972656 L 749.996094 496.925781 C 778.324219 496.925781 806.230469 498.746094 833.605469 502.265625 C 857.351562 505.320312 880.691406 509.65625 903.558594 515.210938 L 1003.871094 414.890625 C 997.515625 412.683594 991.121094 410.554688 984.6875 408.507812 C 970.007812 403.839844 955.132812 399.59375 940.082031 395.785156 C 879.265625 380.414062 815.582031 372.257812 749.996094 372.257812 C 684.40625 372.257812 620.722656 380.421875 559.90625 395.785156 C 544.855469 399.585938 529.976562 403.828125 515.292969 408.507812 C 503.890625 412.136719 492.601562 416.023438 481.425781 420.164062 C 444.308594 433.914062 408.539062 450.425781 374.355469 469.457031 C 373.535156 475.339844 372.800781 481.253906 372.148438 487.195312 C 369.6875 509.628906 368.421875 532.414062 368.421875 555.507812 C 368.421875 576.820312 369.5 597.886719 371.601562 618.644531 C 378.070312 682.5625 394.253906 743.617188 418.648438 800.292969 L 515.554688 703.375 C 506.296875 673.765625 499.75 642.957031 496.1875 611.242188 Z M 496.207031 611.242188 " fill-opacity="1" fill-rule="evenodd"/></g><path fill="#f5f5f5" d="M 1125.625 469.457031 C 1091.449219 450.425781 1055.679688 433.914062 1018.5625 420.164062 C 1013.6875 418.351562 1008.792969 416.597656 1003.878906 414.890625 L 903.570312 515.210938 L 740.753906 678.019531 L 640.847656 578.113281 L 554.34375 664.617188 L 552.691406 666.265625 L 740.753906 854.328125 L 903.265625 691.8125 L 1005.757812 589.335938 Z M 1125.625 469.457031 " fill-opacity="1" fill-rule="evenodd"/><g clip-path="url(#da1143ec32)"><path fill="#f5f5f5" d="M 1005.746094 589.335938 C 1005.246094 596.691406 1004.597656 603.988281 1003.785156 611.25 C 985.480469 774.574219 887.6875 913.863281 749.996094 989.539062 C 643.582031 931.0625 561 834.582031 520.527344 718.378906 C 518.789062 713.402344 517.167969 708.402344 515.566406 703.386719 L 418.660156 800.300781 C 420.660156 804.933594 422.695312 809.523438 424.808594 814.097656 C 465.941406 903.535156 527.75 981.507812 604.117188 1041.871094 C 648.28125 1076.761719 697.289062 1105.78125 749.996094 1127.722656 C 802.703125 1105.78125 851.710938 1076.761719 895.863281 1041.871094 C 1023.910156 940.652344 1111.039062 789.964844 1128.378906 618.652344 C 1130.484375 597.898438 1131.558594 576.820312 1131.558594 555.507812 C 1131.558594 532.414062 1130.285156 509.621094 1127.832031 487.195312 C 1127.183594 481.253906 1126.445312 475.339844 1125.625 469.457031 L 1005.757812 589.335938 Z M 1005.746094 589.335938 " fill-opacity="1" fill-rule="evenodd"/></g><path fill="#f5f5f5" d="M 1017.289062 527.761719 L 1017.269531 521.886719 C 1017.289062 523.839844 1017.289062 525.800781 1017.289062 527.761719 Z M 1017.289062 527.761719 " fill-opacity="1" fill-rule="evenodd"/><path fill="#f5f5f5" d="M 1017.289062 527.761719 L 1017.269531 521.886719 C 1017.289062 523.839844 1017.289062 525.800781 1017.289062 527.761719 Z M 1017.289062 527.761719 " fill-opacity="1" fill-rule="evenodd"/></svg>